<svg width="173" height="173" viewBox="0 0 88 88" fill="none" xmlns="http://www.w3.org/2000/svg">
<path d="M58.6806 51.215C58.4006 66.945 51.0506 79.115 43.9906 87.225H43.8506C35.5006 87.225 27.7106 84.855 21.1006 80.765C34.1306 77.455 49.5806 69.565 58.6806 51.215Z" fill="#F5A507"/>
<path d="M69.38 78.875C63.03 83.545 55.36 86.505 47.04 87.105C54.51 78.055 61.84 64.615 60.8 47.325V47.215L60.79 47.145C60.67 45.165 60.44 43.165 60.1 41.135C69.11 54.015 70.33 68.175 69.38 78.875Z" fill="#F5A507"/>
<path d="M85.0203 57.205C82.5303 64.995 77.8803 71.825 71.7803 76.995C72.5003 65.295 70.5203 50.125 59.5203 36.715C59.4803 36.665 59.4403 36.615 59.3903 36.565C58.1403 35.045 56.7803 33.565 55.3203 32.135C70.2003 37.255 79.4903 47.995 85.0203 57.205Z" fill="#F5A507"/>
<path d="M87.0802 43.985C87.0802 47.535 86.6502 50.985 85.8401 54.285C79.5501 44.385 69.0202 33.255 52.2202 28.885C52.1602 28.865 52.1001 28.855 52.0401 28.845C50.1301 28.345 48.1602 27.955 46.1602 27.655C61.2002 23.055 75.0501 26.285 84.9301 30.495C86.3301 34.745 87.0802 39.275 87.0802 43.985Z" fill="#F5A507"/>
<path d="M83.8699 27.615C77.5399 25.125 69.8199 23.135 61.2999 23.135C55.1299 23.135 48.5299 24.185 41.7499 26.845L41.5999 26.905C39.7599 27.635 37.9299 28.465 36.1299 29.415C45.5799 16.865 58.6699 11.335 69.1299 8.91504C75.6399 13.615 80.7899 20.075 83.8699 27.615Z" fill="#F5A507"/>
<path d="M66.6105 7.225C55.2405 10.155 41.4105 16.735 32.0905 31.335C32.0505 31.395 32.0105 31.445 32.0005 31.475C30.9305 33.155 29.9305 34.925 29.0205 36.755C29.3005 21.025 36.6405 8.85501 43.6905 0.755005H43.8505C52.2005 0.755005 60.0005 3.125 66.6105 7.225Z" fill="#F5A507"/>
<path d="M26.9101 40.825C27.0301 42.805 27.2601 44.815 27.6001 46.835C18.5901 33.955 17.3701 19.805 18.3201 9.105C24.6701 4.445 32.3301 1.485 40.6401 0.875C33.1801 9.925 25.8701 23.365 26.9001 40.665V40.755L26.9101 40.825Z" fill="#F5A507"/>
<path d="M32.3807 55.835C17.5107 50.715 8.20066 39.965 2.68066 30.745C5.18066 22.965 9.82067 16.145 15.9207 10.985C15.2007 22.705 17.1807 37.895 28.2007 51.285L28.2507 51.345C28.2507 51.345 28.2707 51.375 28.2807 51.385C29.5507 52.915 30.9207 54.405 32.3807 55.835Z" fill="#F5A507"/>
<path d="M41.5303 60.3151C26.4903 64.9151 12.6503 61.6951 2.76035 57.4851C1.36035 53.2351 0.610352 48.6951 0.610352 43.9851C0.610352 40.4351 1.04034 36.9851 1.85034 33.6851C8.15034 43.5951 18.6803 54.7151 35.4603 59.0851C35.4803 59.0851 35.4903 59.0951 35.5103 59.0951L35.9203 59.3451L36.0504 59.2251C37.8304 59.6751 39.6703 60.0351 41.5303 60.3151Z" fill="#F5A507"/>
<path d="M51.5905 58.545C51.3305 58.885 51.0606 59.245 50.7706 59.605C50.5506 59.885 50.3205 60.155 50.1105 60.425L50.0206 60.525C49.8206 60.765 49.6205 61.005 49.4205 61.235C48.7405 62.025 48.0405 62.795 47.3205 63.525L47.2805 63.565C47.0605 63.795 46.8305 64.025 46.6005 64.255C46.3405 64.525 46.0605 64.785 45.7905 65.035C45.6405 65.185 45.4905 65.325 45.3405 65.455L45.1505 65.635C44.6405 66.095 44.1506 66.525 43.6606 66.935C43.4206 67.145 43.1706 67.355 42.9106 67.565C42.7206 67.725 42.5306 67.865 42.3306 68.025L42.1505 68.165C41.8705 68.375 41.5905 68.605 41.3205 68.805L40.9706 69.055C40.8605 69.145 40.7505 69.235 40.6305 69.315C40.1205 69.685 39.6006 70.0351 39.0806 70.3951C38.8206 70.5651 38.5706 70.735 38.3006 70.905C38.0406 71.075 37.7906 71.235 37.5206 71.405C37.2706 71.555 37.0105 71.725 36.7305 71.875C36.4005 72.085 36.0705 72.285 35.7206 72.485C35.5906 72.555 35.4606 72.625 35.3306 72.695L35.1805 72.785C34.6505 73.075 34.1206 73.365 33.6105 73.625L33.5405 73.665C33.3005 73.785 33.0506 73.905 32.8306 74.025L32.6105 74.135C32.4405 74.215 32.2806 74.295 32.1105 74.375L31.9605 74.445C31.7305 74.565 31.5005 74.665 31.2505 74.785C30.7305 75.025 30.2006 75.255 29.6906 75.475C29.1706 75.695 28.6505 75.915 28.1305 76.115C27.6205 76.315 27.1005 76.515 26.5905 76.695C26.0805 76.885 25.5705 77.065 25.0705 77.235C24.6205 77.385 24.1705 77.525 23.7305 77.675C23.2005 77.835 22.6806 77.995 22.1606 78.135L21.9305 78.205C21.8405 78.225 21.7505 78.255 21.6705 78.275C21.2405 78.395 20.8105 78.515 20.4005 78.625C20.0505 78.705 19.7105 78.785 19.3705 78.875L19.2005 78.915C18.9905 78.965 18.7805 79.015 18.5605 79.055C12.0405 74.355 6.89055 67.875 3.81055 60.335C14.7405 64.645 29.8206 67.455 45.9706 61.105H45.9805C46.0405 61.085 46.0905 61.065 46.1305 61.045C47.9505 60.325 49.7805 59.485 51.5905 58.545Z" fill="#F5A507"/>
</svg>
