<svg width="243" height="87" viewBox="0 0 243 87" fill="none" xmlns="http://www.w3.org/2000/svg">
<path d="M112.95 86.48H0V0H25.54V65.13H52.01V0H112.95C104.53 5.37 97.77 13.12 93.64 22.31H75.65V31.53H90.52C89.64 35.29 89.17 39.22 89.17 43.25C89.17 46.84 89.54 50.35 90.25 53.74H75.56V64.75H93.9C98.05 73.69 104.7 81.24 112.95 86.49V86.48Z" fill="white"/>
<path d="M242.9 0V86.49H216.34L202.96 53.89V86.49H168.26C182.55 77.39 192.05 61.41 192.05 43.25C192.05 25.09 182.55 9.1 168.26 0H205.78L219.73 31.94V0H242.9Z" fill="white"/>
<path d="M155.68 50.47C155.4 66.2 148.05 78.37 140.99 86.48H140.85C132.5 86.48 124.71 84.11 118.1 80.02C131.13 76.71 146.58 68.82 155.68 50.47Z" fill="#F5A507"/>
<path d="M166.379 78.1299C160.029 82.7999 152.359 85.7599 144.039 86.3599C151.509 77.3099 158.839 63.8699 157.799 46.5799V46.4699L157.789 46.3999C157.669 44.4199 157.439 42.4199 157.099 40.3899C166.109 53.2699 167.329 67.4299 166.379 78.1299Z" fill="#F5A507"/>
<path d="M182.019 56.4599C179.529 64.2499 174.879 71.0799 168.779 76.2499C169.499 64.5499 167.519 49.3799 156.519 35.9699C156.479 35.9199 156.439 35.8699 156.389 35.8199C155.139 34.2999 153.779 32.8199 152.319 31.3899C167.199 36.5099 176.489 47.2499 182.019 56.4599Z" fill="#F5A507"/>
<path d="M184.079 43.24C184.079 46.79 183.649 50.24 182.839 53.54C176.549 43.64 166.019 32.51 149.219 28.14C149.159 28.12 149.099 28.11 149.039 28.1C147.129 27.6 145.159 27.21 143.159 26.91C158.199 22.31 172.049 25.54 181.929 29.75C183.329 34 184.079 38.53 184.079 43.24Z" fill="#F5A507"/>
<path d="M180.869 26.8699C174.539 24.3799 166.819 22.3899 158.299 22.3899C152.129 22.3899 145.529 23.4399 138.749 26.0999L138.599 26.1599C136.759 26.8899 134.929 27.7199 133.129 28.6699C142.579 16.1199 155.669 10.5899 166.129 8.16992C172.639 12.8699 177.789 19.3299 180.869 26.8699Z" fill="#F5A507"/>
<path d="M163.61 6.48001C152.24 9.41001 138.41 15.99 129.09 30.59C129.05 30.65 129.01 30.7 129 30.73C127.93 32.41 126.93 34.18 126.02 36.01C126.3 20.28 133.64 8.11001 140.69 0.0100098H140.85C149.2 0.0100098 157 2.38001 163.61 6.48001Z" fill="#F5A507"/>
<path d="M123.909 40.0801C124.029 42.0601 124.259 44.0701 124.599 46.0901C115.589 33.2101 114.369 19.0601 115.319 8.36013C121.669 3.70013 129.329 0.740127 137.639 0.130127C130.179 9.18013 122.869 22.6201 123.899 39.9201V40.0101L123.909 40.0801Z" fill="#F5A507"/>
<path d="M129.38 55.09C114.51 49.97 105.2 39.22 99.6797 30C102.18 22.22 106.82 15.4 112.92 10.24C112.2 21.96 114.18 37.15 125.2 50.54L125.25 50.6C125.25 50.6 125.27 50.63 125.28 50.64C126.55 52.17 127.92 53.66 129.38 55.09Z" fill="#F5A507"/>
<path d="M138.529 59.5699C123.489 64.1699 109.649 60.9499 99.7594 56.7399C98.3594 52.4899 97.6094 47.9499 97.6094 43.2399C97.6094 39.6899 98.0394 36.2399 98.8494 32.9399C105.149 42.8499 115.679 53.9699 132.459 58.3399C132.479 58.3399 132.489 58.3499 132.509 58.3499L132.919 58.5999L133.049 58.4799C134.829 58.9299 136.669 59.2899 138.529 59.5699Z" fill="#F5A507"/>
<path d="M148.59 57.8C148.33 58.14 148.06 58.5001 147.77 58.8601C147.55 59.1401 147.32 59.4101 147.11 59.6801L147.02 59.7801C146.82 60.0201 146.62 60.2601 146.42 60.4901C145.74 61.2801 145.04 62.0501 144.32 62.7801L144.28 62.8201C144.06 63.0501 143.83 63.28 143.6 63.51C143.34 63.78 143.06 64.0401 142.79 64.2901C142.64 64.4401 142.49 64.5801 142.34 64.7101L142.15 64.8901C141.64 65.3501 141.15 65.78 140.66 66.19C140.42 66.4 140.17 66.6101 139.91 66.8201C139.72 66.9801 139.53 67.1201 139.33 67.2801L139.15 67.4201C138.87 67.6301 138.59 67.8601 138.32 68.0601L137.97 68.3101C137.86 68.4001 137.75 68.4901 137.63 68.5701C137.12 68.9401 136.6 69.2901 136.08 69.6501C135.82 69.8201 135.57 69.99 135.3 70.16C135.04 70.33 134.79 70.49 134.52 70.66C134.27 70.81 134.01 70.9801 133.73 71.1301C133.4 71.3401 133.07 71.5401 132.72 71.7401C132.59 71.8101 132.46 71.8801 132.33 71.9501L132.18 72.0401C131.65 72.3301 131.12 72.6201 130.61 72.8801L130.54 72.9201C130.3 73.0401 130.05 73.1601 129.83 73.2801L129.61 73.3901C129.44 73.4701 129.28 73.5501 129.11 73.6301L128.96 73.7001C128.73 73.8201 128.5 73.9201 128.25 74.0401C127.73 74.2801 127.2 74.51 126.69 74.73C126.17 74.95 125.65 75.17 125.13 75.37C124.62 75.57 124.1 75.7701 123.59 75.9501C123.08 76.1401 122.57 76.3201 122.07 76.4901C121.62 76.6401 121.17 76.7801 120.73 76.9301C120.2 77.0901 119.68 77.2501 119.16 77.3901L118.93 77.4601C118.84 77.4801 118.75 77.5101 118.67 77.5301C118.24 77.6501 117.81 77.7701 117.4 77.8801C117.05 77.9601 116.71 78.0401 116.37 78.1301L116.2 78.1701C115.99 78.2201 115.78 78.2701 115.56 78.3101C109.04 73.6101 103.89 67.13 100.81 59.59C111.74 63.9 126.82 66.7101 142.97 60.3601H142.98C143.04 60.3401 143.09 60.32 143.13 60.3C144.95 59.58 146.78 58.74 148.59 57.8Z" fill="#F5A507"/>
</svg>
