<svg width="486" height="229" viewBox="0 0 486 229" fill="none" xmlns="http://www.w3.org/2000/svg">
    <path d="M0 228.613V194.736H13.2811C16.2651 194.736 18.8079 195.207 20.9198 196.137C23.0318 197.077 24.6499 198.425 25.7847 200.201C26.9194 201.978 27.4868 204.089 27.4868 206.544C27.4868 209 26.9194 211.1 25.7847 212.856C24.6499 214.611 23.0318 215.97 20.9198 216.921C18.8079 217.871 16.2651 218.352 13.2811 218.352H2.67934L4.86483 216.074V228.603H0V228.613ZM4.86483 216.565L2.67934 214.141H13.1445C16.2546 214.141 18.6188 213.483 20.2264 212.156C21.834 210.839 22.6325 208.958 22.6325 206.544C22.6325 204.13 21.834 202.249 20.2264 200.933C18.6188 199.606 16.2651 198.947 13.1445 198.947H2.67934L4.86483 196.523V216.565Z" fill="white"/>
    <path d="M50.508 229C47.9127 229 45.5066 228.561 43.279 227.694C41.062 226.826 39.1287 225.604 37.5106 224.036C35.8925 222.469 34.6211 220.64 33.7175 218.54C32.8034 216.44 32.3516 214.151 32.3516 211.664C32.3516 209.177 32.8034 206.889 33.7175 204.789C34.6211 202.688 35.8925 200.86 37.5106 199.292C39.1287 197.725 41.0515 196.513 43.258 195.635C45.4645 194.767 47.8812 194.329 50.508 194.329C53.1033 194.329 55.4989 194.757 57.6844 195.614C59.8699 196.471 61.7822 197.683 63.4319 199.24C65.071 200.807 66.3318 202.636 67.225 204.736C68.1181 206.837 68.5594 209.136 68.5594 211.654C68.5594 214.172 68.1181 216.481 67.225 218.571C66.3318 220.672 65.071 222.5 63.4319 224.068C61.7927 225.635 59.8804 226.847 57.6844 227.694C55.4989 228.571 53.1033 229 50.508 229ZM50.508 224.695C52.3888 224.695 54.133 224.371 55.7406 223.723C57.3482 223.075 58.7456 222.166 59.9225 220.985C61.1098 219.804 62.0344 218.425 62.6964 216.847C63.3583 215.269 63.6945 213.535 63.6945 211.664C63.6945 209.794 63.3583 208.07 62.6964 206.481C62.0344 204.903 61.1098 203.524 59.9225 202.343C58.7351 201.163 57.3482 200.253 55.7406 199.606C54.133 198.958 52.3888 198.634 50.508 198.634C48.5957 198.634 46.8305 198.958 45.2229 199.606C43.6153 200.253 42.2178 201.163 41.0095 202.343C39.8117 203.524 38.8765 204.903 38.2146 206.481C37.5526 208.059 37.2164 209.794 37.2164 211.664C37.2164 213.535 37.5526 215.259 38.2146 216.847C38.8765 218.425 39.8117 219.804 41.0095 220.985C42.2073 222.166 43.6153 223.075 45.2229 223.723C46.841 224.371 48.5957 224.695 50.508 224.695Z" fill="white"/>
    <path d="M85.9389 229C83.3436 229 80.8639 228.603 78.4998 227.819C76.1251 227.025 74.2653 226.001 72.8994 224.747L74.6961 220.975C75.9885 222.103 77.6487 223.044 79.6555 223.786C81.6624 224.527 83.7534 224.904 85.9283 224.904C87.9037 224.904 89.5113 224.674 90.7512 224.224C91.9805 223.775 92.8946 223.148 93.4725 222.364C94.0609 221.57 94.3446 220.682 94.3446 219.679C94.3446 218.519 93.9663 217.579 93.1993 216.868C92.4428 216.157 91.4446 215.583 90.2258 215.154C89.007 214.715 87.6725 214.339 86.212 214.015C84.7515 213.691 83.2805 213.315 81.8095 212.876C80.3385 212.437 78.9831 211.884 77.7748 211.204C76.5559 210.525 75.5788 209.616 74.8327 208.467C74.0867 207.317 73.7085 205.844 73.7085 204.036C73.7085 202.291 74.1708 200.692 75.0954 199.219C76.0201 197.745 77.449 196.575 79.3719 195.687C81.3052 194.799 83.7639 194.36 86.7479 194.36C88.7233 194.36 90.6881 194.621 92.6319 195.133C94.5758 195.645 96.2674 196.387 97.6964 197.359L96.0888 201.236C94.6283 200.264 93.0838 199.564 91.4656 199.125C89.8475 198.686 88.2714 198.477 86.7479 198.477C84.8356 198.477 83.2595 198.717 82.0302 199.198C80.8008 199.679 79.8972 200.327 79.3298 201.131C78.7624 201.936 78.4787 202.845 78.4787 203.838C78.4787 205.029 78.857 205.98 79.624 206.69C80.3805 207.401 81.3787 207.965 82.5976 208.383C83.8164 208.801 85.1508 209.177 86.6113 209.522C88.0718 209.856 89.5428 210.243 91.0138 210.661C92.4848 211.079 93.8403 211.633 95.0486 212.302C96.2674 212.981 97.2446 213.879 97.9906 215.008C98.7366 216.137 99.1149 217.589 99.1149 219.365C99.1149 221.079 98.6421 222.667 97.7069 224.13C96.7613 225.604 95.3113 226.774 93.3569 227.662C91.3921 228.561 88.9229 229 85.9389 229Z" fill="white"/>
    <path d="M112.511 228.613V198.947H100.827V194.736H129.007V198.947H117.323V228.613H112.511Z" fill="white"/>
    <path d="M147.395 228.613V194.736H160.676C163.66 194.736 166.202 195.207 168.314 196.137C170.426 197.077 172.044 198.425 173.179 200.201C174.314 201.978 174.881 204.089 174.881 206.544C174.881 209 174.314 211.1 173.179 212.856C172.044 214.611 170.426 215.97 168.314 216.921C166.202 217.871 163.66 218.352 160.676 218.352H150.063L152.249 216.074V228.603H147.395V228.613ZM152.259 216.565L150.074 214.141H160.539C163.649 214.141 166.013 213.483 167.621 212.156C169.228 210.839 170.027 208.958 170.027 206.544C170.027 204.13 169.228 202.249 167.621 200.933C166.013 199.606 163.66 198.947 160.539 198.947H150.074L152.259 196.523V216.565Z" fill="white"/>
    <path d="M182.048 228.613V194.736H195.329C198.313 194.736 200.856 195.207 202.968 196.137C205.08 197.077 206.698 198.425 207.833 200.201C208.967 201.978 209.535 204.089 209.535 206.544C209.535 209 208.967 211.1 207.833 212.856C206.698 214.611 205.08 215.959 202.968 216.9C200.856 217.84 198.313 218.3 195.329 218.3H184.717L186.902 216.074V228.603H182.048V228.613ZM186.913 216.565L184.727 214.193H195.192C198.302 214.193 200.667 213.524 202.274 212.187C203.882 210.849 204.68 208.969 204.68 206.544C204.68 204.12 203.882 202.249 202.274 200.933C200.667 199.606 198.313 198.947 195.192 198.947H184.727L186.913 196.523V216.565ZM204.817 228.613L196.159 216.325H201.371L210.134 228.613H204.817Z" fill="white"/>
    <path d="M232.797 229C230.202 229 227.796 228.561 225.568 227.694C223.351 226.826 221.418 225.604 219.8 224.036C218.182 222.469 216.91 220.64 216.007 218.54C215.092 216.44 214.641 214.151 214.641 211.664C214.641 209.177 215.092 206.889 216.007 204.789C216.91 202.688 218.182 200.86 219.8 199.292C221.418 197.725 223.341 196.513 225.547 195.635C227.754 194.767 230.17 194.329 232.797 194.329C235.392 194.329 237.788 194.757 239.973 195.614C242.159 196.471 244.071 197.683 245.721 199.24C247.36 200.807 248.621 202.636 249.514 204.736C250.407 206.837 250.848 209.136 250.848 211.654C250.848 214.172 250.407 216.481 249.514 218.571C248.621 220.672 247.36 222.5 245.721 224.068C244.082 225.635 242.169 226.847 239.973 227.694C237.788 228.571 235.392 229 232.797 229ZM232.797 224.695C234.678 224.695 236.422 224.371 238.03 223.723C239.637 223.075 241.035 222.166 242.212 220.985C243.399 219.804 244.323 218.425 244.985 216.847C245.647 215.269 245.984 213.535 245.984 211.664C245.984 209.794 245.647 208.07 244.985 206.481C244.323 204.903 243.399 203.524 242.212 202.343C241.024 201.163 239.637 200.253 238.03 199.606C236.422 198.958 234.678 198.634 232.797 198.634C230.885 198.634 229.12 198.958 227.512 199.606C225.904 200.253 224.507 201.163 223.299 202.343C222.101 203.524 221.166 204.903 220.504 206.481C219.842 208.059 219.505 209.794 219.505 211.664C219.505 213.535 219.842 215.259 220.504 216.847C221.166 218.425 222.101 219.804 223.299 220.985C224.496 222.166 225.904 223.075 227.512 223.723C229.12 224.371 230.885 224.695 232.797 224.695Z" fill="white"/>
    <path d="M258.299 228.613V194.736H272.652C276.287 194.736 279.492 195.447 282.266 196.868C285.04 198.289 287.194 200.275 288.738 202.824C290.283 205.374 291.05 208.321 291.05 211.685C291.05 215.05 290.272 217.997 288.738 220.547C287.194 223.096 285.04 225.082 282.266 226.503C279.492 227.924 276.287 228.634 272.652 228.634H258.299V228.613ZM263.164 224.402H272.357C275.184 224.402 277.622 223.869 279.681 222.804C281.74 221.738 283.337 220.243 284.472 218.331C285.607 216.409 286.174 214.193 286.174 211.675C286.174 209.125 285.607 206.899 284.472 204.998C283.337 203.096 281.74 201.612 279.681 200.546C277.622 199.48 275.184 198.947 272.357 198.947H263.164V224.402Z" fill="white"/>
    <path d="M312.6 229C308.124 229 304.604 227.725 302.04 225.176C299.476 222.626 298.194 218.895 298.194 213.995V194.736H303.059V213.807C303.059 217.579 303.889 220.338 305.56 222.083C307.231 223.828 309.595 224.695 312.642 224.695C315.72 224.695 318.095 223.828 319.766 222.083C321.436 220.338 322.277 217.579 322.277 213.807V194.736H326.995V213.995C326.995 218.895 325.723 222.626 323.17 225.176C320.638 227.725 317.118 229 312.6 229Z" fill="white"/>
    <path d="M352.211 229C349.616 229 347.221 228.572 345.035 227.715C342.85 226.858 340.948 225.646 339.34 224.089C337.733 222.532 336.482 220.693 335.568 218.592C334.654 216.492 334.202 214.193 334.202 211.675C334.202 209.157 334.654 206.847 335.568 204.757C336.472 202.657 337.743 200.828 339.361 199.261C340.979 197.693 342.892 196.492 345.077 195.635C347.263 194.778 349.658 194.35 352.254 194.35C354.88 194.35 357.307 194.788 359.525 195.677C361.742 196.565 363.633 197.882 365.198 199.616L362.036 202.667C360.743 201.309 359.283 200.306 357.654 199.647C356.036 198.989 354.292 198.655 352.443 198.655C350.53 198.655 348.755 198.979 347.115 199.627C345.476 200.274 344.058 201.173 342.86 202.333C341.662 203.493 340.727 204.872 340.065 206.471C339.403 208.07 339.067 209.804 339.067 211.675C339.067 213.545 339.403 215.28 340.065 216.879C340.727 218.477 341.662 219.857 342.86 221.017C344.058 222.177 345.476 223.086 347.115 223.723C348.755 224.371 350.53 224.695 352.443 224.695C354.292 224.695 356.026 224.36 357.654 223.702C359.272 223.044 360.733 222.02 362.036 220.63L365.198 223.681C363.643 225.426 361.752 226.743 359.525 227.652C357.318 228.551 354.87 229 352.211 229Z" fill="white"/>
    <path d="M378.542 228.613V198.947H366.858V194.736H395.039V198.947H383.355V228.613H378.542Z" fill="white"/>
    <path d="M400.346 228.613V194.736H405.211V228.613H400.346Z" fill="white"/>
    <path d="M430.806 229C428.211 229 425.804 228.561 423.577 227.694C421.36 226.826 419.427 225.604 417.808 224.036C416.19 222.469 414.919 220.64 414.015 218.54C413.101 216.44 412.649 214.151 412.649 211.664C412.649 209.177 413.101 206.889 414.015 204.789C414.919 202.688 416.19 200.86 417.808 199.292C419.427 197.725 421.349 196.513 423.556 195.635C425.762 194.767 428.179 194.329 430.806 194.329C433.401 194.329 435.797 194.757 437.982 195.614C440.168 196.471 442.08 197.683 443.73 199.24C445.369 200.807 446.63 202.636 447.523 204.736C448.416 206.837 448.857 209.136 448.857 211.654C448.857 214.172 448.416 216.481 447.523 218.571C446.63 220.672 445.369 222.5 443.73 224.068C442.091 225.635 440.178 226.847 437.982 227.694C435.797 228.571 433.401 229 430.806 229ZM430.806 224.695C432.687 224.695 434.431 224.371 436.038 223.723C437.646 223.075 439.043 222.166 440.22 220.985C441.408 219.804 442.332 218.425 442.994 216.847C443.656 215.269 443.992 213.535 443.992 211.664C443.992 209.794 443.656 208.07 442.994 206.481C442.332 204.903 441.408 203.524 440.22 202.343C439.033 201.163 437.646 200.253 436.038 199.606C434.431 198.958 432.687 198.634 430.806 198.634C428.894 198.634 427.128 198.958 425.521 199.606C423.913 200.253 422.516 201.163 421.307 202.343C420.11 203.524 419.174 204.903 418.512 206.481C417.85 208.059 417.514 209.794 417.514 211.664C417.514 213.535 417.85 215.259 418.512 216.847C419.174 218.425 420.11 219.804 421.307 220.985C422.505 222.166 423.913 223.075 425.521 223.723C427.128 224.371 428.894 224.695 430.806 224.695Z" fill="white"/>
    <path d="M456.307 228.613V194.736H460.299L482.827 222.563H480.736V194.736H485.601V228.613H481.608L459.081 200.787H461.171V228.613H456.307Z" fill="white"/>
    <path d="M225.989 172.092H0V0H51.0965V129.594H104.053V0H225.978C209.135 10.6898 195.602 26.1028 187.343 44.3893H151.346V62.7386H181.102C179.337 70.2204 178.402 78.0366 178.402 86.0618C178.402 93.2092 179.137 100.189 180.566 106.929H151.178V128.842H187.869C196.169 146.627 209.482 161.653 225.989 172.092Z" fill="white"/>
    <path d="M486 0V172.092H432.865L406.093 107.222V172.092H336.672C365.262 153.983 384.269 122.186 384.269 86.0513C384.269 49.9171 365.251 18.1089 336.661 0H411.725L439.632 63.5536V0H486Z" fill="white"/>
</svg>
