<svg width="40" height="40" viewBox="0 0 40 40" fill="none" xmlns="http://www.w3.org/2000/svg">
<path d="M6.28572 4V3V4ZM4 33.7143H3H4ZM29.9109 11.9108L30.5539 11.145L30.5539 11.145L29.9109 11.9108ZM22.1109 14.9332L21.2352 14.4503C21.0852 14.7224 21.0701 15.0488 21.1945 15.3336C21.3189 15.6183 21.5686 15.8291 21.8702 15.9039L22.1109 14.9332ZM23.7333 20.9219L24.6025 21.4163C24.6078 21.407 24.6129 21.3977 24.6179 21.3882L23.7333 20.9219ZM18.5333 19.7046L17.5603 19.9354L18.5333 19.7046ZM7.55556 15.4417L6.8776 14.7066C6.55577 15.0034 6.46443 15.475 6.65219 15.8705L7.55556 15.4417ZM10.7229 16.208L10.3102 15.2971L10.31 15.2972L10.7229 16.208ZM13.3333 17.8787L12.3681 18.14L12.3682 18.1404L13.3333 17.8787ZM19.1111 30.6503L19.2534 29.6605C19.2063 29.6537 19.1587 29.6503 19.1111 29.6503V30.6503ZM6.28572 5H33.7143V3H6.28572V5ZM33.7143 5C34.0553 5 34.3823 5.13546 34.6234 5.37658L36.0376 3.96236C35.4214 3.34617 34.5857 3 33.7143 3V5ZM34.6234 5.37658C34.8645 5.6177 35 5.94473 35 6.28571H37C37 5.41428 36.6538 4.57855 36.0376 3.96236L34.6234 5.37658ZM35 6.28571V33.7143H37V6.28571H35ZM35 33.7143C35 34.0553 34.8645 34.3823 34.6234 34.6234L36.0376 36.0376C36.6538 35.4214 37 34.5857 37 33.7143H35ZM34.6234 34.6234C34.3823 34.8645 34.0553 35 33.7143 35V37C34.5857 37 35.4214 36.6538 36.0376 36.0376L34.6234 34.6234ZM33.7143 35H6.28572V37H33.7143V35ZM6.28572 35C5.94472 35 5.6177 34.8645 5.37658 34.6234L3.96236 36.0376C4.57855 36.6538 5.41429 37 6.28572 37V35ZM5.37658 34.6234C5.13546 34.3823 5 34.0553 5 33.7143H3C3 34.5857 3.34617 35.4214 3.96236 36.0376L5.37658 34.6234ZM5 33.7143V6.28571H3V33.7143H5ZM5 6.28571C5 5.94472 5.13546 5.6177 5.37658 5.37658L3.96236 3.96236C3.34617 4.57855 3 5.41429 3 6.28571H5ZM5.37658 5.37658C5.6177 5.13546 5.94472 5 6.28572 5V3C5.41429 3 4.57856 3.34617 3.96236 3.96236L5.37658 5.37658ZM30.5539 11.145C28.743 9.62451 26.5293 10.144 24.9084 11.0233C23.2742 11.9097 21.8404 13.353 21.2352 14.4503L22.9866 15.4162C23.3809 14.7011 24.5131 13.513 25.862 12.7813C27.2241 12.0424 28.4106 11.9569 29.2679 12.6767L30.5539 11.145ZM21.8702 15.9039C22.3558 16.0243 22.6833 16.0679 23.0861 16.2034C23.4498 16.3257 23.6569 16.4637 23.7715 16.6154C23.8663 16.7406 23.9944 17.002 23.918 17.6C23.8386 18.2216 23.5439 19.1367 22.8487 20.4555L24.6179 21.3882C25.3671 19.9669 25.7798 18.81 25.9019 17.8533C26.0271 16.8728 25.8509 16.0494 25.3669 15.4092C24.9027 14.7953 24.2565 14.487 23.7237 14.3077C23.23 14.1417 22.6177 14.0286 22.3516 13.9626L21.8702 15.9039ZM22.8641 20.4274C22.6068 20.8797 22.2743 21.3469 21.9175 21.7074C21.5429 22.086 21.2389 22.2489 21.0469 22.2826C20.9548 22.2988 20.7984 22.3167 20.5321 22.0016C20.2192 21.6314 19.8391 20.8769 19.5063 19.4738L17.5603 19.9354C17.9209 21.4557 18.393 22.569 19.0046 23.2926C19.6627 24.0712 20.5029 24.4089 21.3931 24.2524C22.1833 24.1135 22.8471 23.6114 23.3391 23.1142C23.849 22.599 24.2821 21.9796 24.6025 21.4163L22.8641 20.4274ZM19.5063 19.4738C19.0901 17.7187 18.7431 15.9136 18.3508 14.4905C17.9641 13.0875 17.4544 11.7123 16.5249 10.8873C16.0253 10.4439 15.417 10.1684 14.7033 10.1191C14.0124 10.0714 13.287 10.2396 12.5318 10.5646C11.0414 11.2058 9.20513 12.56 6.8776 14.7066L8.23351 16.1768C10.5282 14.0605 12.1586 12.9024 13.3223 12.4017C13.8942 12.1556 14.2927 12.0955 14.5656 12.1143C14.8156 12.1316 15.0108 12.2176 15.1973 12.3831C15.64 12.7761 16.0331 13.6084 16.4227 15.022C16.8069 16.4156 17.1099 18.0362 17.5603 19.9354L19.5063 19.4738ZM6.65219 15.8705C7.08983 16.7924 7.9046 17.2753 8.73638 17.4333C9.54652 17.5872 10.4099 17.4479 11.1359 17.1187L10.31 15.2972C9.90932 15.4789 9.46401 15.5358 9.10963 15.4684C8.77691 15.4052 8.57132 15.2496 8.45892 15.0128L6.65219 15.8705ZM11.1356 17.1188C11.5062 16.9509 11.6835 16.9898 11.7631 17.03C11.8573 17.0777 12.1377 17.2891 12.3681 18.14L14.2986 17.6173C14.0009 16.5177 13.4885 15.6615 12.6658 15.2454C11.8285 14.8218 10.9646 15.0006 10.3102 15.2971L11.1356 17.1188ZM12.3682 18.1404C12.6458 19.1642 12.8901 20.4494 13.1743 21.8686C13.4541 23.2651 13.7688 24.7695 14.1807 26.1488C14.5887 27.5151 15.1162 28.8448 15.8613 29.8497C16.6241 30.8783 17.6858 31.6503 19.1111 31.6503V29.6503C18.5142 29.6503 17.987 29.3586 17.4678 28.6584C16.931 27.9345 16.4835 26.8704 16.0971 25.5765C15.7145 24.2956 15.4153 22.8734 15.1354 21.4757C14.8599 20.1006 14.5987 18.724 14.2985 17.617L12.3682 18.1404ZM18.9688 31.6402C19.8221 31.7629 20.681 31.446 21.4336 31.0054C22.2075 30.5524 23.0043 29.8892 23.7839 29.1087C25.3463 27.5443 26.9505 25.3963 28.2934 23.1542C29.6342 20.9158 30.7512 18.5224 31.2991 16.4551C31.5723 15.4243 31.719 14.42 31.6495 13.5307C31.5799 12.6401 31.2815 11.7559 30.5539 11.145L29.2679 12.6767C29.4402 12.8214 29.6104 13.1083 29.6556 13.6865C29.7009 14.2658 29.6084 15.0277 29.3659 15.9427C28.8824 17.7667 27.8619 19.9824 26.5777 22.1266C25.2956 24.267 23.7875 26.2749 22.3688 27.6954C21.6578 28.4072 20.9969 28.9437 20.4233 29.2794C19.8283 29.6277 19.4499 29.6888 19.2534 29.6605L18.9688 31.6402Z" fill="white"/>
</svg>
