<svg width="40" height="40" viewBox="0 0 40 40" fill="none" xmlns="http://www.w3.org/2000/svg">
<path d="M20 35.5C23.3485 35.5 26.5583 35.1736 29.5331 34.5755C33.2516 33.8278 35.109 33.4558 36.8036 31.3077C38.5 29.1578 38.5 26.6905 38.5 21.7561V18.244C38.5 13.3095 38.5 10.8405 36.8036 8.69235C35.109 6.54424 33.2516 6.17042 29.5331 5.42459C26.3945 4.80452 23.201 4.49481 20 4.50007C16.6515 4.50007 13.4418 4.82648 10.467 5.42459C6.74845 6.17224 4.89105 6.54424 3.19645 8.69235C1.5 10.8423 1.5 13.3095 1.5 18.244V21.7561C1.5 26.6905 1.5 29.1596 3.19645 31.3077C4.89105 33.4558 6.74845 33.8297 10.467 34.5755C13.4418 35.1736 16.6515 35.5 20 35.5Z" stroke="white" stroke-width="2" stroke-linecap="round" stroke-linejoin="round"/>
<path d="M27.3297 20.5708C27.0559 21.6759 25.5944 22.4673 22.6732 24.0556C19.4949 25.7824 17.9058 26.645 16.6201 26.3113C16.1916 26.2022 15.7913 26.0052 15.4453 25.7332C14.45 24.94 14.45 23.2933 14.45 20C14.45 16.7067 14.45 15.0601 15.4453 14.2669C15.782 13.9988 16.1853 13.8 16.6201 13.6888C17.9058 13.3551 19.4949 14.2176 22.6732 15.9445C25.5962 17.531 27.0559 18.3242 27.3297 19.4293C27.4222 19.8049 27.4222 20.1951 27.3297 20.5708Z" stroke="white" stroke-width="2" stroke-linecap="round" stroke-linejoin="round"/>
</svg>
