<svg width="40" height="40" viewBox="0 0 40 40" fill="none" xmlns="http://www.w3.org/2000/svg">
<path d="M20 27.1111V28.1111V27.1111ZM27.3333 20H28.3333H27.3333ZM20 12.8889V11.8889V12.8889ZM12.6667 20H11.6667H12.6667ZM29.3538 9.55606C28.9761 9.95897 28.9965 10.5918 29.3994 10.9695C29.8023 11.3473 30.4351 11.3269 30.8129 10.9239L29.3538 9.55606ZM30.8312 10.9044C31.2089 10.5015 31.1885 9.86864 30.7856 9.49091C30.3827 9.11318 29.7499 9.13359 29.3721 9.5365L30.8312 10.9044ZM20 28.1111C22.2004 28.1111 24.3166 27.2638 25.8816 25.7462L24.4893 24.3104C23.3038 25.46 21.6895 26.1111 20 26.1111V28.1111ZM25.8816 25.7462C27.4476 24.2276 28.3333 22.1613 28.3333 20H26.3333C26.3333 21.6107 25.6738 23.1618 24.4893 24.3104L25.8816 25.7462ZM28.3333 20C28.3333 17.8387 27.4476 15.7724 25.8816 14.2538L24.4893 15.6896C25.6738 16.8382 26.3333 18.3893 26.3333 20H28.3333ZM25.8816 14.2538C24.3166 12.7362 22.2004 11.8889 20 11.8889V13.8889C21.6895 13.8889 23.3038 14.54 24.4893 15.6896L25.8816 14.2538ZM20 11.8889C17.7996 11.8889 15.6834 12.7362 14.1184 14.2538L15.5107 15.6896C16.6962 14.54 18.3105 13.8889 20 13.8889V11.8889ZM14.1184 14.2538C12.5524 15.7724 11.6667 17.8387 11.6667 20H13.6667C13.6667 18.3893 14.3262 16.8382 15.5107 15.6896L14.1184 14.2538ZM11.6667 20C11.6667 22.1613 12.5524 24.2276 14.1184 25.7462L15.5107 24.3104C14.3262 23.1618 13.6667 21.6107 13.6667 20H11.6667ZM14.1184 25.7462C15.6834 27.2638 17.7996 28.1111 20 28.1111V26.1111C18.3105 26.1111 16.6962 25.46 15.5107 24.3104L14.1184 25.7462ZM4.5 27.1111V12.8889H2.5V27.1111H4.5ZM4.5 12.8889C4.5 10.8067 5.3527 8.80339 6.881 7.3214L5.48871 5.88559C3.57885 7.73758 2.5 10.2561 2.5 12.8889H4.5ZM6.881 7.3214C8.41035 5.83839 10.491 5 12.6667 5V3C9.98006 3 7.39753 4.03462 5.48871 5.88559L6.881 7.3214ZM12.6667 5H27.3333V3H12.6667V5ZM27.3333 5C29.509 5 31.5896 5.83839 33.119 7.3214L34.5113 5.88559C32.6025 4.03462 30.0199 3 27.3333 3V5ZM33.119 7.3214C34.6473 8.80339 35.5 10.8067 35.5 12.8889H37.5C37.5 10.2561 36.4212 7.73758 34.5113 5.88559L33.119 7.3214ZM35.5 12.8889V27.1111H37.5V12.8889H35.5ZM35.5 27.1111C35.5 29.1933 34.6473 31.1966 33.119 32.6786L34.5113 34.1144C36.4212 32.2624 37.5 29.7439 37.5 27.1111H35.5ZM33.119 32.6786C31.5896 34.1616 29.509 35 27.3333 35V37C30.0199 37 32.6025 35.9654 34.5113 34.1144L33.119 32.6786ZM27.3333 35H12.6667V37H27.3333V35ZM12.6667 35C10.491 35 8.41035 34.1616 6.881 32.6786L5.48871 34.1144C7.39753 35.9654 9.98006 37 12.6667 37V35ZM6.881 32.6786C5.3527 31.1966 4.5 29.1933 4.5 27.1111H2.5C2.5 29.7439 3.57885 32.2624 5.48871 34.1144L6.881 32.6786ZM30.8129 10.9239L30.8312 10.9044L29.3721 9.5365L29.3538 9.55606L30.8129 10.9239Z" fill="white"/>
</svg>
