<svg width="40" height="40" viewBox="0 0 40 40" fill="none" xmlns="http://www.w3.org/2000/svg">
<path d="M12.9286 16.5714V28M27.0714 28V22.2857C27.0714 21.0733 26.5747 19.9105 25.6906 19.0532C24.8065 18.1959 23.6074 17.7143 22.3571 17.7143C21.1068 17.7143 19.9077 18.1959 19.0236 19.0532C18.1395 19.9105 17.6429 21.0733 17.6429 22.2857V28V16.5714M11.75 13.1429H14.1071M5.85714 4H34.1429C34.768 4 35.3676 4.24082 35.8096 4.66947C36.2517 5.09812 36.5 5.67951 36.5 6.28571V33.7143C36.5 34.3205 36.2517 34.9019 35.8096 35.3305C35.3676 35.7592 34.768 36 34.1429 36H5.85714C5.23199 36 4.63244 35.7592 4.19039 35.3305C3.74834 34.9019 3.5 34.3205 3.5 33.7143V6.28571C3.5 5.67951 3.74834 5.09812 4.19039 4.66947C4.63244 4.24082 5.23199 4 5.85714 4Z" stroke="white" stroke-width="2"/>
</svg>
