<svg width="40" height="40" viewBox="0 0 40 40" fill="none" xmlns="http://www.w3.org/2000/svg">
<path d="M3.5 33.5385V6.46154C3.5 5.8087 3.76744 5.1826 4.2435 4.72097C4.71955 4.25934 5.36522 4 6.03846 4H33.9615C34.6348 4 35.2804 4.25934 35.7565 4.72097C36.2326 5.1826 36.5 5.8087 36.5 6.46154V33.5385C36.5 34.1913 36.2326 34.8174 35.7565 35.279C35.2804 35.7407 34.6348 36 33.9615 36H26.3462V24.3323H28.1485C28.5591 24.3323 28.953 24.1741 29.2434 23.8925C29.5338 23.6109 29.6969 23.229 29.6969 22.8308V20.9354C29.6969 20.5372 29.5338 20.1552 29.2434 19.8736C28.953 19.592 28.5591 19.4338 28.1485 19.4338H26.4477V17.12C26.4477 15.0523 27.4123 15.0523 28.3769 15.0523H29.6208C29.8251 15.0605 30.0287 15.025 30.2173 14.9485C30.406 14.8719 30.5749 14.7561 30.7123 14.6092C30.8598 14.473 30.9766 14.3087 31.0553 14.1265C31.1339 13.9443 31.1727 13.7482 31.1692 13.5508V11.7292C31.176 11.5288 31.142 11.329 31.0691 11.1413C30.9962 10.9537 30.8859 10.7817 30.7444 10.6354C30.603 10.4891 30.4332 10.3713 30.2447 10.2886C30.0563 10.206 29.8529 10.1602 29.6462 10.1538H26.7269C25.8751 10.1228 25.0265 10.2714 24.2398 10.5894C23.453 10.9075 22.7468 11.3873 22.1699 11.9958C21.5931 12.6043 21.1593 13.327 20.8986 14.114C20.6379 14.901 20.5565 15.7334 20.66 16.5538V19.4338H19.0354C18.8299 19.4306 18.6258 19.467 18.435 19.541C18.2442 19.615 18.0705 19.7251 17.924 19.8648C17.7775 20.0046 17.6612 20.1712 17.5818 20.355C17.5024 20.5388 17.4615 20.7361 17.4615 20.9354V22.8308C17.4615 23.03 17.5024 23.2273 17.5818 23.4111C17.6612 23.5949 17.7775 23.7616 17.924 23.9013C18.0705 24.0411 18.2442 24.1512 18.435 24.2252C18.6258 24.2992 18.8299 24.3356 19.0354 24.3323H20.66V36H6.03846C5.36522 36 4.71955 35.7407 4.2435 35.279C3.76744 34.8174 3.5 34.1913 3.5 33.5385Z" stroke="white" stroke-width="2" stroke-linecap="round" stroke-linejoin="round"/>
</svg>
