<svg width="1919" height="1080" viewBox="0 0 1919 1080" fill="none" xmlns="http://www.w3.org/2000/svg">
<path d="M1242.89 713.651C1226.62 1114.43 982.014 1396.9 823.207 1538.9L575.541 1433.49L317.07 1323.5C597.261 1287.22 1012.69 1155.71 1242.89 713.651Z" fill="#454443"/>
<path d="M1432.05 1423.98L1169.86 1484.38L895.891 1547.4C1074.47 1378.1 1323.98 1058.27 1297.34 610.742V609.212L1297.23 608.558V599.93L1296.58 599.276C1294.62 569.677 1291.34 539.636 1286.86 509.484C1509.11 843.41 1477.01 1215.67 1432.05 1423.98Z" fill="#454443"/>
<path d="M1857.19 972.958L1680.37 1176.35L1495.8 1388.48C1540.99 1146.53 1555.17 740.743 1270.07 393.709L1269.31 392.833L1269.2 392.722L1268.22 391.524C1247.81 366.728 1225.87 342.365 1202.62 318.667C1578.31 458.05 1771.18 777.982 1857.19 972.958Z" fill="#454443"/>
<path d="M1982.39 1099.67C1876.52 877.267 1554.63 347.51 1120.75 234.674L1118.24 234.131L1118.01 234.02C1086.8 225.936 1054.82 219.16 1022.18 213.704C1113.33 188.032 1207.09 175.146 1301.93 175.146H1302.04C1564.77 175.146 1789.95 273.021 1936.1 358.111L1982.39 1099.67Z" fill="#454443"/>
<path d="M2161.18 379.806C2010.56 297.777 1553.85 118.557 1303.03 118.557C1167.46 118.557 1034.08 143.896 906.705 193.931L905.941 194.263C905.609 194.374 905.287 194.485 904.955 194.596L904.412 194.817L903.869 195.039C874.071 206.838 844.384 220.157 814.908 234.694C1063.23 -79.5903 1518.35 -302.765 1842.28 -258.468L2161.18 379.806Z" fill="#454443"/>
<path d="M1585.07 -235.353C1341 -203.46 950.909 -91.4999 709.57 286.995L709.349 287.428L709.128 287.76C707.488 290.599 683.364 332.107 658.808 378.206C665.135 203.657 715.023 35.4402 807.584 -123.061C877.008 -241.907 968.142 -352.115 1078.71 -450.977L1326.27 -345.571L1585.07 -235.353Z" fill="#454443"/>
<path d="M604.575 477.379V478.255L604.796 479.675C604.796 480.218 604.907 480.762 604.907 481.316C606.868 513.32 610.359 545.868 615.168 578.527C392.933 244.611 424.914 -127.763 469.882 -336.068L732.276 -396.583L1006.14 -459.605C827.564 -290.191 577.936 29.7519 604.575 477.379Z" fill="#454443"/>
<path d="M699.43 769.355C323.73 629.971 130.971 309.928 44.8477 114.953L221.561 -88.218L406.242 -300.238C361.063 -58.1869 346.979 347.5 632.078 694.312C632.078 694.312 676.835 746.2 699.43 769.355Z" fill="#454443"/>
<path d="M-71.0732 29.3794C34.8079 251.779 347.2 740.401 781.177 853.135C782.274 853.468 783.249 853.79 784.346 854.011L786.096 854.444C816.769 862.196 848.096 868.861 879.855 874.217C788.712 899.888 694.953 912.775 600.098 912.775C337.261 912.775 112.089 814.899 -34.0626 729.81L-71.0732 29.3794Z" fill="#454443"/>
<path d="M-200.897 710.943C-50.2695 792.973 348.065 969.354 598.679 969.354C710.888 969.354 821.668 951.988 928.747 917.577C937.046 914.96 945.335 912.221 953.524 909.271C967.166 904.57 980.807 899.546 994.348 894.201C995.655 893.868 996.963 893.325 998.17 892.781C1028.19 880.982 1057.99 867.663 1087.56 853.025C1080.68 861.653 1073.59 870.391 1066.17 879.13L1065.83 879.462L1065.61 879.794C1063.54 882.412 1061.36 884.818 1059.17 887.335L1058.74 887.767C1055.46 891.805 1051.97 895.63 1048.48 899.566C1044.99 903.503 1041.39 907.54 1037.79 911.476C1033.96 915.735 1030.04 919.782 1026.22 923.93C1021.42 928.953 1016.61 933.977 1011.48 939.001C1007.22 943.481 1002.75 947.85 998.271 952.219C963.886 985.864 926.342 1017.65 886.394 1046.92C881.485 1050.53 876.565 1054.13 871.334 1057.62C855.943 1068.55 840.551 1078.82 825.602 1088.21C821.346 1090.94 816.98 1093.68 812.393 1096.4C808.027 1099.13 803.55 1101.76 799.074 1104.38C793.178 1107.98 787.394 1111.36 781.388 1114.65C773.753 1119.13 765.886 1123.39 758.25 1127.53C752.687 1130.48 747.013 1133.43 741.329 1136.38C736.742 1138.79 732.265 1140.97 727.688 1143.27L723.101 1145.56C717.095 1148.51 711.2 1151.46 705.093 1154.3C698.977 1157.25 693.092 1159.98 686.754 1162.82C681.955 1165 677.147 1167.08 672.348 1169.26L668.857 1170.68C664.27 1172.76 659.582 1174.72 654.451 1176.8C649.753 1178.77 645.065 1180.74 640.156 1182.7C635.458 1184.55 630.66 1186.53 626.183 1188.27L620.942 1190.23C616.465 1191.98 611.988 1193.62 607.512 1195.26C587.865 1202.58 567.996 1209.45 548.46 1215.57C537.545 1218.96 527.283 1222.13 517.565 1224.85C511.781 1226.61 505.996 1228.24 500.323 1229.77L496.389 1230.86C491.802 1232.06 487.325 1233.38 482.959 1234.47L465.827 1238.73C460.375 1240.15 454.801 1241.46 449.238 1242.76L445.305 1243.64C441.16 1244.63 436.905 1245.6 432.86 1246.48C421.835 1248.89 411.03 1251.18 400.769 1253.25C398.365 1253.69 395.971 1254.24 393.456 1254.67C391.273 1255.11 388.979 1255.55 386.363 1256.09C382.219 1256.97 377.963 1257.62 373.919 1258.39L366.827 1259.59C357.662 1261.12 348.709 1262.65 339.544 1264.07C338.89 1264.18 338.347 1264.29 337.794 1264.4H337.14L336.486 1264.51C324.585 1266.36 312.141 1268.11 298.61 1269.87H298.178L297.846 1269.98C295.663 1270.31 293.59 1270.52 291.518 1270.74H290.975L290.431 1270.85C280.824 1272.05 271.438 1273.04 263.249 1273.91L-200.897 710.943Z" fill="#454443"/>
<path d="M1268.3 728.431C1250.63 1164.1 984.71 1471.17 812.071 1625.54L542.836 1510.95L261.861 1391.38C566.457 1351.96 1018.06 1208.99 1268.3 728.431Z" fill="#F5A507"/>
<path d="M1473.94 1500.62L1188.93 1566.29L891.103 1634.81C1085.23 1450.76 1356.48 1103.07 1327.52 616.582V614.92L1327.4 614.206V604.823L1326.69 604.108C1324.56 571.933 1321 539.274 1316.13 506.504C1557.71 869.495 1522.82 1274.17 1473.94 1500.62Z" fill="#F5A507"/>
<path d="M1936.1 1010.33L2090.57 1306.91L1543.23 1462.03C1592.35 1199.01 1607.77 757.878 1297.85 380.632L1297.01 379.686L1296.89 379.565L1295.82 378.256C1273.63 351.306 1249.78 324.818 1224.51 299.056C1632.93 450.57 1842.6 798.369 1936.1 1010.33Z" fill="#F5A507"/>
<path d="M2021.89 341.922L1996.14 633.676L1969.32 938.256C1854.22 696.497 1607.18 330.405 1135.52 207.744L1132.79 207.15L1132.56 207.029C1098.63 198.24 1063.86 190.881 1028.38 184.941C1127.46 157.034 1229.38 143.021 1332.49 143.021H1332.61C1618.23 143.021 1863.01 249.413 2021.89 341.922Z" fill="#F5A507"/>
<path d="M2255.75 375.779C2092 286.602 1644.1 63.6894 1333.68 81.5188C1186.55 89.9654 1041.31 109.063 902.843 163.458L902.018 163.81C901.665 163.931 901.303 164.052 900.951 164.162L900.358 164.404L899.764 164.645C867.371 177.471 835.099 191.958 803.058 207.754C1073 -133.894 1550.54 -249.407 1806.07 -249.407L2255.75 375.779Z" fill="#F5A507"/>
<path d="M1640.29 -303.218C1374.98 -268.546 950.898 -146.831 688.544 264.615L688.303 265.088L688.061 265.44C686.281 268.531 660.054 313.653 633.365 363.758C640.246 174.008 694.47 -8.85663 795.089 -181.16C870.559 -310.356 969.63 -430.168 1089.83 -537.627L1358.94 -423.04L1640.29 -303.218Z" fill="#F5A507"/>
<path d="M574.404 471.591V472.537L574.645 474.078C574.645 474.672 574.766 475.266 574.766 475.859C576.899 510.652 580.701 546.039 585.923 581.537C344.332 218.546 379.1 -186.254 427.981 -412.701L713.231 -478.481L1010.94 -547C816.819 -362.827 545.451 -15.0276 574.404 471.591Z" fill="#F5A507"/>
<path d="M358.799 -373.75C309.676 -110.608 294.365 330.405 604.303 707.42C604.303 707.42 652.953 763.828 677.509 788.996C269.094 637.482 2.96798 198.039 -90.6602 -13.9204L358.799 -373.75Z" fill="#F5A507"/>
<path d="M873.658 902.98C774.577 930.886 672.659 944.9 569.545 944.9C283.822 944.9 39.0323 838.508 -119.845 746.008L-94.1013 454.376L-67.2814 149.675C47.8147 391.434 294.616 757.526 766.398 880.066C767.585 880.419 768.652 880.781 769.839 881.012L771.74 881.486C805.069 889.922 839.122 897.161 873.658 902.98Z" fill="#F5A507"/>
<path d="M-104.07 824.373C59.6758 913.55 295.562 1006.41 567.996 1006.41C689.973 1006.41 810.411 987.536 926.815 950.125C935.829 947.276 944.853 944.306 953.745 941.105C968.574 936.001 983.412 930.534 998.12 924.715C999.549 924.363 1000.97 923.769 1002.27 923.175C1034.91 910.349 1067.3 895.862 1099.45 879.955C1091.98 889.338 1084.26 898.832 1076.2 908.335L1075.84 908.688L1075.6 909.04C1073.35 911.889 1070.97 914.507 1068.6 917.235L1068.13 917.708C1064.57 922.098 1060.77 926.255 1056.97 930.534C1053.18 934.813 1049.25 939.202 1045.34 943.481C1041.19 948.112 1036.92 952.501 1032.77 957.021C1027.55 962.488 1022.32 967.944 1016.75 973.411C1012.12 978.284 1007.25 983.025 1002.4 987.777C965.023 1024.35 924.199 1058.9 880.771 1090.73C875.429 1094.64 870.087 1098.57 864.393 1102.36C847.663 1114.23 830.933 1125.4 814.677 1135.62C810.049 1138.59 805.301 1141.56 800.321 1144.53C795.573 1147.5 790.714 1150.35 785.845 1153.2C779.436 1157.11 773.149 1160.8 766.62 1164.36C758.31 1169.23 749.77 1173.86 741.46 1178.37C735.404 1181.58 729.237 1184.79 723.07 1187.99C718.091 1190.61 713.222 1192.97 708.242 1195.47L703.262 1197.96C696.733 1201.17 690.325 1204.38 683.686 1207.47C677.036 1210.67 670.638 1213.64 663.757 1216.73C658.536 1219.11 653.315 1221.36 648.093 1223.74L644.291 1225.28C639.311 1227.53 634.211 1229.67 628.627 1231.93C623.527 1234.07 618.427 1236.21 613.085 1238.35C607.984 1240.37 602.763 1242.5 597.894 1244.41L592.2 1246.54C587.331 1248.44 582.472 1250.22 577.603 1252.01C556.246 1259.96 534.647 1267.44 513.411 1274.09C501.55 1277.78 490.393 1281.22 479.83 1284.19C473.543 1286.1 467.255 1287.88 461.079 1289.54L456.803 1290.73C451.823 1292.03 446.954 1293.45 442.206 1294.64L423.575 1299.27C417.64 1300.81 411.594 1302.24 405.538 1303.66L401.262 1304.61C396.755 1305.68 392.128 1306.74 387.741 1307.7C375.76 1310.31 364.01 1312.8 352.854 1315.06C350.248 1315.53 347.632 1316.13 344.906 1316.6C342.532 1317.07 340.047 1317.55 337.19 1318.14C332.683 1319.09 328.056 1319.8 323.659 1320.64L315.943 1321.95C305.974 1323.61 296.246 1325.27 286.277 1326.82C285.562 1326.94 284.969 1327.06 284.375 1327.17H283.661L282.947 1327.29C270.01 1329.31 256.489 1331.21 241.771 1333.11H241.298L240.946 1333.23C238.572 1333.58 236.319 1333.82 234.065 1334.07H233.472L232.878 1334.19C222.436 1335.5 -67.3615 1387.46 -76.2545 1388.41L-104.07 824.373Z" fill="#F5A507"/>
</svg>
