<svg width="460" height="824" viewBox="0 0 460 824" fill="none" xmlns="http://www.w3.org/2000/svg">
<mask id="mask0_80_6083" style="mask-type:luminance" maskUnits="userSpaceOnUse" x="-5" y="0" width="470" height="835">
<path d="M464.773 834.244L464.773 0.257812L-4.69073 0.257792L-4.69077 834.244L464.773 834.244Z" fill="white"/>
</mask>
<g mask="url(#mask0_80_6083)">
<path d="M153.705 536.78C-19.3403 529.756 -141.305 424.139 -202.618 355.57L-157.106 248.633L-109.612 137.031C-93.9503 258.011 -37.1669 437.383 153.705 536.78Z" fill="#454443"/>
<path d="M-152.998 618.454L-179.079 505.249L-206.291 386.954C-133.189 464.058 4.90705 571.794 198.139 560.292L198.8 560.292L199.083 560.245L202.808 560.245L203.09 559.962C215.87 559.115 228.841 557.699 241.86 555.766C97.6783 651.727 -63.0566 637.87 -152.998 618.454Z" fill="#454443"/>
<path d="M41.7422 802.022L-46.078 725.673L-137.671 645.98C-33.2025 665.492 142.008 671.616 291.849 548.516L292.227 548.186L292.275 548.139L292.793 547.717C303.499 538.904 314.018 529.43 324.251 519.392C264.068 681.607 125.928 764.884 41.7422 802.022Z" fill="#454443"/>
<path d="M-12.9673 856.079C83.0599 810.366 311.798 671.382 360.518 484.043L360.752 482.957L360.8 482.862C364.291 469.383 367.216 455.575 369.572 441.484C380.657 480.838 386.221 521.321 386.221 562.273L386.221 562.321C386.221 675.76 343.96 772.989 307.22 836.094L-12.9673 856.079Z" fill="#454443"/>
<path d="M297.853 933.279C333.271 868.241 410.654 671.047 410.654 562.746C410.654 504.211 399.713 446.622 378.109 391.623L377.966 391.293C377.918 391.149 377.87 391.01 377.822 390.867L377.727 390.632L377.631 390.398C372.537 377.532 366.786 364.714 360.509 351.987C496.21 459.206 592.572 655.718 573.445 795.585L297.853 933.279Z" fill="#454443"/>
<path d="M563.465 684.526C549.694 579.144 501.352 410.709 337.926 306.504L337.739 306.409L337.596 306.313C336.37 305.605 318.448 295.189 298.543 284.586C373.91 287.318 446.542 308.858 514.979 348.825C566.295 378.8 613.88 418.15 656.566 465.891L611.054 572.78L563.465 684.526Z" fill="#454443"/>
<path d="M255.723 261.169L255.344 261.169L254.732 261.265C254.497 261.265 254.262 261.312 254.023 261.312C240.204 262.159 226.151 263.667 212.049 265.743C356.227 169.787 517.01 183.595 606.951 203.012L633.08 316.308L660.292 434.556C587.143 357.451 448.998 249.667 255.723 261.169Z" fill="#454443"/>
<path d="M129.654 302.126C189.836 139.907 328.024 56.6779 412.21 19.4917L499.935 95.7927L591.48 175.534C486.968 156.026 311.802 149.945 162.056 273.045C162.056 273.045 139.652 292.37 129.654 302.126Z" fill="#454443"/>
<path d="M449.159 -30.5605C353.132 15.1566 142.156 150.041 93.4792 337.423C93.3358 337.896 93.1967 338.317 93.101 338.791L92.9141 339.547C89.567 352.79 86.6894 366.317 84.3768 380.03C73.2923 340.676 67.7282 300.193 67.7282 259.236C67.7282 145.749 109.989 48.5247 146.729 -14.5802L449.159 -30.5605Z" fill="#454443"/>
<path d="M154.875 -86.6157C119.457 -21.5779 43.299 150.414 43.299 258.624C43.299 307.073 50.7974 354.906 65.6551 401.14C66.7852 404.723 67.9676 408.303 69.2412 411.838C71.2712 417.728 73.4403 423.618 75.7485 429.465C75.892 430.03 76.1267 430.594 76.3614 431.116C81.456 444.077 87.2069 456.943 93.5273 469.714C89.802 466.742 86.029 463.68 82.2559 460.475L82.1124 460.331L81.9689 460.236C80.8388 459.341 79.7998 458.398 78.7131 457.456L78.5262 457.269C76.7831 455.853 75.1313 454.346 73.4316 452.838C71.732 451.331 69.9889 449.776 68.2893 448.221C66.4506 446.57 64.7031 444.876 62.9122 443.226C60.7431 441.154 58.574 439.078 56.4049 436.862C54.4705 435.025 52.5839 433.092 50.6974 431.159C36.1701 416.312 22.447 400.102 9.80621 382.853C8.25003 380.733 6.69384 378.609 5.18547 376.351C0.469096 369.705 -3.96474 363.059 -8.02039 356.604C-9.1984 354.767 -10.3808 352.882 -11.5588 350.901C-12.7368 349.016 -13.8713 347.083 -15.0015 345.15C-16.5577 342.605 -18.0182 340.107 -19.4353 337.514C-21.3697 334.217 -23.2084 330.82 -24.9993 327.523C-26.273 325.121 -27.5466 322.671 -28.8203 320.217C-29.8591 318.237 -30.8024 316.304 -31.7935 314.327L-32.7846 312.347C-34.0582 309.753 -35.3319 307.208 -36.5577 304.571C-37.8314 301.93 -39.0094 299.389 -40.2352 296.653C-41.1785 294.581 -42.0739 292.505 -43.0172 290.433L-43.6301 288.925C-44.5256 286.945 -45.3732 284.921 -46.273 282.705C-47.1207 280.677 -47.9726 278.653 -48.8203 276.533C-49.6201 274.504 -50.4721 272.432 -51.2241 270.5L-52.0718 268.236C-52.8281 266.304 -53.5323 264.371 -54.2408 262.438C-57.401 253.954 -60.37 245.376 -63.0129 236.94C-64.4734 232.227 -65.8427 227.797 -67.0207 223.601C-67.7771 221.103 -68.4813 218.606 -69.142 216.156L-69.6158 214.457C-70.1331 212.477 -70.7026 210.544 -71.172 208.659L-73.0107 201.261C-73.6237 198.907 -74.1887 196.501 -74.7539 194.099L-75.132 192.4C-75.558 190.611 -75.9796 188.773 -76.3578 187.027C-77.3967 182.266 -78.3878 177.601 -79.2833 173.171C-79.4702 172.133 -79.7093 171.099 -79.8962 170.013C-80.0831 169.07 -80.2744 168.08 -80.5091 166.951C-80.8873 165.161 -81.1699 163.324 -81.5002 161.578L-82.0175 158.515C-82.6782 154.558 -83.3389 150.692 -83.9518 146.735C-83.9996 146.453 -84.0475 146.218 -84.0953 145.979L-84.0953 145.697L-84.1431 145.415C-84.9429 140.276 -85.6993 134.903 -86.4556 129.061L-86.4556 128.874L-86.5035 128.731C-86.647 127.788 -86.7382 126.893 -86.8338 125.998L-86.8338 125.764L-86.8817 125.529C-87.399 121.381 -87.8249 117.329 -88.2031 113.793L154.875 -86.6157Z" fill="#454443"/>
<path d="M147.324 547.752C-40.7875 540.12 -173.376 425.304 -240.027 350.762L-190.551 234.512L-138.923 113.193C-121.9 244.711 -60.1703 439.703 147.324 547.752Z" fill="#F5A507"/>
<path d="M-186.091 636.541L-214.445 513.48L-244.03 384.886C-164.56 468.706 -14.4363 585.824 195.619 573.323L196.336 573.323L196.644 573.271L200.696 573.271L201.004 572.963C214.897 572.042 228.998 570.504 243.147 568.402C86.416 672.711 -88.316 657.647 -186.091 636.541Z" fill="#F5A507"/>
<path d="M25.6066 836.094L-102.453 902.791L-169.43 666.46C-55.8628 687.67 134.609 694.329 297.496 560.509L297.905 560.149L297.957 560.096L298.522 559.636C310.158 550.054 321.595 539.755 332.719 528.844C267.298 705.193 117.126 795.723 25.6066 836.094Z" fill="#F5A507"/>
<path d="M314.21 873.137L188.237 862.017L56.7265 850.437C161.113 800.741 319.183 694.073 372.146 490.42L372.402 489.243L372.454 489.143C376.249 474.492 379.427 459.48 381.991 444.16C394.041 486.941 400.092 530.946 400.092 575.469L400.092 575.521C400.092 698.842 354.154 804.533 314.21 873.137Z" fill="#F5A507"/>
<path d="M299.591 974.11C338.096 903.408 434.345 710.014 426.647 575.982C423 512.455 414.753 449.741 391.267 389.955L391.115 389.599C391.063 389.447 391.011 389.29 390.963 389.138L390.859 388.882L390.754 388.626C385.216 374.639 378.961 360.705 372.141 346.87C519.657 463.424 569.533 669.618 569.533 779.948L299.591 974.11Z" fill="#F5A507"/>
<path d="M592.767 708.368C577.797 593.812 525.243 410.705 347.59 297.426L347.386 297.322L347.233 297.218C345.899 296.449 326.416 285.125 304.782 273.601C386.712 276.572 465.669 299.985 540.066 343.43C595.849 376.016 647.582 418.793 693.98 470.691L644.504 586.889L592.767 708.368Z" fill="#F5A507"/>
<path d="M258.222 248.143L257.813 248.143L257.148 248.247C256.892 248.247 256.635 248.299 256.379 248.299C241.356 249.22 226.077 250.862 210.75 253.116C367.481 148.803 542.265 163.815 640.04 184.921L668.442 308.086L698.027 436.628C618.505 352.812 468.333 235.642 258.222 248.143Z" fill="#F5A507"/>
<path d="M623.222 155.049C509.603 133.839 319.183 127.228 156.396 261.052C156.396 261.052 132.04 282.058 121.173 292.661C186.594 116.317 376.336 1.40899 467.855 -39.0176L623.222 155.049Z" fill="#F5A507"/>
<path d="M71.9574 377.354C59.9078 334.573 53.8569 290.567 53.8569 246.045C53.8569 122.676 99.7949 16.981 139.734 -51.6187L265.655 -40.5032L397.218 -28.9229C292.832 20.773 134.761 127.336 81.8509 331.042C81.6987 331.554 81.5423 332.015 81.4423 332.527L81.238 333.348C77.5953 347.739 74.4699 362.442 71.9574 377.354Z" fill="#F5A507"/>
<path d="M105.898 -44.8081C67.3937 25.8939 27.2979 127.744 27.2979 245.375C27.2979 298.043 35.4484 350.045 51.6014 400.306C52.8316 404.198 54.1139 408.094 55.4962 411.934C57.7001 418.336 60.0604 424.743 62.5729 431.094C62.7251 431.71 62.9816 432.323 63.238 432.888C68.776 446.978 75.0311 460.965 81.8992 474.847C77.8479 471.62 73.7488 468.289 69.6453 464.805L69.4932 464.653L69.341 464.549C68.1109 463.576 66.9807 462.551 65.8027 461.525L65.5984 461.321C63.7031 459.784 61.9079 458.146 60.0604 456.504C58.213 454.867 56.3178 453.173 54.4703 451.483C52.4708 449.689 50.5755 447.847 48.6238 446.053C46.2634 443.799 43.9074 441.545 41.547 439.138C39.4431 437.14 37.3957 435.038 35.344 432.94C19.5518 416.803 4.63324 399.176 -9.10728 380.425C-10.7982 378.118 -12.4935 375.812 -14.1323 373.353C-19.2572 366.13 -24.078 358.906 -28.4901 351.887C-29.7724 349.889 -31.0547 347.838 -32.337 345.688C-33.6194 343.638 -34.8496 341.54 -36.0798 339.438C-37.7707 336.671 -39.3616 333.956 -40.9004 331.137C-43.0043 327.549 -45.0039 323.861 -46.9513 320.273C-48.3336 317.659 -49.7203 314.996 -51.1026 312.333C-52.2328 310.183 -53.2543 308.081 -54.3323 305.931L-55.4104 303.781C-56.7927 300.961 -58.1793 298.195 -59.5138 295.328C-60.8961 292.457 -62.1785 289.694 -63.513 286.723C-64.5388 284.469 -65.5125 282.214 -66.5384 279.96L-67.2035 278.318C-68.1772 276.168 -69.0987 273.966 -70.0768 271.555C-70.9983 269.353 -71.9242 267.15 -72.8457 264.844C-73.7195 262.642 -74.641 260.387 -75.4626 258.285L-76.3841 255.826C-77.2057 253.724 -77.975 251.626 -78.7444 249.524C-82.1785 240.302 -85.4082 230.976 -88.2815 221.807C-89.8725 216.685 -91.3592 211.868 -92.6415 207.307C-93.463 204.593 -94.2324 201.878 -94.9497 199.211L-95.4626 197.365C-96.0277 195.215 -96.6406 193.112 -97.1536 191.062L-99.1531 183.018C-99.8182 180.455 -100.435 177.844 -101.048 175.229L-101.457 173.383C-101.918 171.437 -102.379 169.439 -102.791 167.545C-103.917 162.372 -104.995 157.299 -105.969 152.482C-106.173 151.357 -106.43 150.227 -106.634 149.05C-106.838 148.025 -107.043 146.952 -107.299 145.719C-107.708 143.773 -108.016 141.774 -108.377 139.876L-108.942 136.545C-109.66 132.24 -110.377 128.04 -111.046 123.735C-111.098 123.427 -111.151 123.171 -111.198 122.914L-111.198 122.606L-111.25 122.297C-112.124 116.711 -112.941 110.874 -113.763 104.519L-113.763 104.315L-113.815 104.163C-113.967 103.137 -114.072 102.164 -114.176 101.192L-114.176 100.935L-114.228 100.679C-114.793 96.1702 -137.232 -28.958 -137.64 -32.7979L105.898 -44.8081Z" fill="#F5A507"/>
</g>
</svg>
